<mxfile host="app.diagrams.net" modified="2024-06-19T17:09:39.707Z" agent="Mozilla/5.0 (Windows NT 10.0; Win64; x64) AppleWebKit/537.36 (KHTML, like Gecko) Chrome/126.0.0.0 Safari/537.36" etag="gm58YRtCcoXeRM05ZzsH" version="24.5.5" type="device">
  <diagram name="Page-1" id="zanwwTryUwLXs4ocwASF">
    <mxGraphModel dx="1434" dy="778" grid="1" gridSize="10" guides="1" tooltips="1" connect="1" arrows="1" fold="1" page="1" pageScale="1" pageWidth="850" pageHeight="1100" math="0" shadow="0">
      <root>
        <mxCell id="0" />
        <mxCell id="1" parent="0" />
        <mxCell id="-jqlk7YvYHAd6jX7iTg3-6" value="AWS" style="rounded=0;whiteSpace=wrap;html=1;align=left;verticalAlign=top;spacingLeft=4;" vertex="1" parent="1">
          <mxGeometry x="240" y="450" width="460" height="240" as="geometry" />
        </mxCell>
        <mxCell id="-jqlk7YvYHAd6jX7iTg3-3" value="GitHub" style="rounded=0;whiteSpace=wrap;html=1;align=left;verticalAlign=top;spacingLeft=7;" vertex="1" parent="1">
          <mxGeometry x="240" y="180" width="250" height="160" as="geometry" />
        </mxCell>
        <mxCell id="-jqlk7YvYHAd6jX7iTg3-8" style="edgeStyle=orthogonalEdgeStyle;rounded=0;orthogonalLoop=1;jettySize=auto;html=1;exitX=0.5;exitY=1;exitDx=0;exitDy=0;entryX=0.5;entryY=0;entryDx=0;entryDy=0;" edge="1" parent="1" source="-jqlk7YvYHAd6jX7iTg3-1" target="-jqlk7YvYHAd6jX7iTg3-14">
          <mxGeometry relative="1" as="geometry" />
        </mxCell>
        <mxCell id="-jqlk7YvYHAd6jX7iTg3-1" value="HTTP Client" style="rounded=0;whiteSpace=wrap;html=1;labelBackgroundColor=none;labelBorderColor=none;strokeColor=#000000;" vertex="1" parent="1">
          <mxGeometry x="290" y="230" width="120" height="60" as="geometry" />
        </mxCell>
        <mxCell id="-jqlk7YvYHAd6jX7iTg3-4" style="edgeStyle=orthogonalEdgeStyle;rounded=0;orthogonalLoop=1;jettySize=auto;html=1;exitX=1;exitY=0.5;exitDx=0;exitDy=0;entryX=0;entryY=0.5;entryDx=0;entryDy=0;" edge="1" parent="1" source="-jqlk7YvYHAd6jX7iTg3-2" target="-jqlk7YvYHAd6jX7iTg3-1">
          <mxGeometry relative="1" as="geometry" />
        </mxCell>
        <mxCell id="-jqlk7YvYHAd6jX7iTg3-2" value="Browser" style="rounded=0;whiteSpace=wrap;html=1;" vertex="1" parent="1">
          <mxGeometry x="70" y="230" width="120" height="60" as="geometry" />
        </mxCell>
        <mxCell id="-jqlk7YvYHAd6jX7iTg3-10" style="edgeStyle=orthogonalEdgeStyle;rounded=0;orthogonalLoop=1;jettySize=auto;html=1;exitX=1;exitY=0.5;exitDx=0;exitDy=0;entryX=0;entryY=0.5;entryDx=0;entryDy=0;" edge="1" parent="1" source="-jqlk7YvYHAd6jX7iTg3-7" target="-jqlk7YvYHAd6jX7iTg3-9">
          <mxGeometry relative="1" as="geometry" />
        </mxCell>
        <mxCell id="-jqlk7YvYHAd6jX7iTg3-7" value="Service (Lambda)" style="rounded=0;whiteSpace=wrap;html=1;strokeColor=#000000;" vertex="1" parent="1">
          <mxGeometry x="290" y="600" width="120" height="60" as="geometry" />
        </mxCell>
        <mxCell id="-jqlk7YvYHAd6jX7iTg3-9" value="Datastore" style="rounded=0;whiteSpace=wrap;html=1;strokeColor=#000000;" vertex="1" parent="1">
          <mxGeometry x="530" y="597.5" width="140" height="65" as="geometry" />
        </mxCell>
        <mxCell id="-jqlk7YvYHAd6jX7iTg3-17" style="edgeStyle=orthogonalEdgeStyle;rounded=0;orthogonalLoop=1;jettySize=auto;html=1;exitX=0.5;exitY=1;exitDx=0;exitDy=0;" edge="1" parent="1" source="-jqlk7YvYHAd6jX7iTg3-14" target="-jqlk7YvYHAd6jX7iTg3-7">
          <mxGeometry relative="1" as="geometry" />
        </mxCell>
        <mxCell id="-jqlk7YvYHAd6jX7iTg3-14" value="API Gateway" style="ellipse;whiteSpace=wrap;html=1;" vertex="1" parent="1">
          <mxGeometry x="290" y="480" width="120" height="80" as="geometry" />
        </mxCell>
      </root>
    </mxGraphModel>
  </diagram>
</mxfile>
